<?xml version="1.0" encoding="UTF-8"?>
<svg id="Layer_1" data-name="Layer 1" xmlns="http://www.w3.org/2000/svg" viewBox="0 0 16 16">
  <defs>
    <style>
      .cls-1 {
        fill: #fff;
        stroke-width: 0px;
      }
    </style>
  </defs>
  <path class="cls-1" d="M6.81,9.2c0-.41.2-1.06,1.73-1.06.47,0,.76.03,1.15.12-.12,1.61-.91,1.82-1.67,1.82-.42,0-1.2-.22-1.2-.88h0Z"/>
  <path class="cls-1" d="M2.59,16h10.82c1.43,0,2.59-1.16,2.59-2.59h0V2.59C16,1.16,14.84,0,13.41,0h0S2.59,0,2.59,0C1.16,0,0,1.16,0,2.59h0v10.82C0,14.84,1.16,16,2.59,16h0M5.87,5.91c.57-.81,1.32-1.13,2.35-1.13.73,0,1.35.25,1.8.71.44.47.7,1.13.75,1.98.25.1.47.22.68.36.83.56,1.29,1.4,1.29,2.35,0,2.04-1.67,3.81-4.69,3.81-2.6,0-5.29-1.51-5.29-6,0-4.47,2.61-6,5.28-6,1.23,0,4.13.18,5.22,3.78l-1.02.26c-.84-2.56-2.61-2.97-4.22-2.97-2.68,0-4.19,1.63-4.19,5.09,0,3.11,1.69,4.76,4.22,4.76,2.08,0,3.64-1.08,3.64-2.67,0-1.08-.91-1.6-.95-1.6-.18.93-.65,2.48-2.73,2.48-1.21,0-2.26-.84-2.26-1.94,0-1.57,1.49-2.14,2.66-2.14.44,0,.97.03,1.25.09,0-.48-.4-1.3-1.43-1.3-.91,0-1.16.29-1.45.62l-.02.03c-.2-.14-.88-.6-.88-.6h0Z"/>
</svg>