<?xml version="1.0" encoding="UTF-8"?>
<svg id="Layer_1" data-name="Layer 1" xmlns="http://www.w3.org/2000/svg" viewBox="0 0 14 16">
  <defs>
    <style>
      .cls-1 {
        fill: #fff;
        stroke-width: 0px;
      }
    </style>
  </defs>
  <path class="cls-1" d="M5.32,6.02c-.27-.18-1.17-.8-1.17-.8.76-1.08,1.75-1.5,3.13-1.5.98,0,1.8.33,2.39.95s.93,1.51,1.01,2.64c.33.14.63.3.9.48,1.11.74,1.72,1.86,1.72,3.14,0,2.72-2.23,5.07-6.26,5.07-3.46,0-7.05-2.01-7.05-8.01S3.48,0,7.04,0c1.65,0,5.51.24,6.96,5.04l-1.36.35c-1.12-3.41-3.48-3.96-5.63-3.96C3.44,1.43,1.42,3.6,1.42,8.22c0,4.14,2.25,6.34,5.63,6.34,2.78,0,4.85-1.44,4.85-3.56,0-1.44-1.21-2.13-1.27-2.13-.24,1.23-.87,3.31-3.64,3.31-1.62,0-3.01-1.12-3.01-2.58,0-2.09,1.98-2.85,3.55-2.85.59,0,1.29.04,1.66.11,0-.64-.54-1.73-1.9-1.73-1.25,0-1.57.41-1.97.87h0ZM7.72,8.19c-2.04,0-2.3.87-2.3,1.42,0,.88,1.04,1.17,1.6,1.17,1.02,0,2.07-.28,2.23-2.42-.5-.12-1.01-.17-1.53-.16"/>
</svg>